<svg xmlns="http://www.w3.org/2000/svg" width="22" height="22" viewBox="0 0 22 22"><defs><style>.a,.b,.c{fill:none;}.b,.c{stroke:#42526E;stroke-linecap:round;stroke-linejoin:round;stroke-width:1.5px;}.b{fill-rule:evenodd;}</style></defs><rect class="a" width="22" height="22"/><path class="b" d="M11.051,17.31,5.614,20.289a.906.906,0,0,1-1.208-.361h0A.957.957,0,0,1,4.3,19.5V6.3c0-2.517,1.72-3.524,4.2-3.524h5.815c2.4,0,4.2.94,4.2,3.356V19.5a.9.9,0,0,1-.9.9.99.99,0,0,1-.436-.109L11.7,17.31A.68.68,0,0,0,11.051,17.31Z" transform="translate(-0.296 -0.778)"/><path class="c" d="M8.37,9.323h6.687" transform="translate(-0.636 -1.323)"/></svg>