<svg xmlns="http://www.w3.org/2000/svg" width="32" height="32"><path style="text-indent:0;text-align:start;line-height:normal;text-transform:none;block-progression:tb;marker:none;-inkscape-font-specification:Sans" d="M10.125 1a.524.524 0 0 0 .313 1c1.298 0 2.437.679 3.093 1.688a5.339 5.339 0 0 0-2.906 4.75c.001.401.065.798.156 1.187a.5.5 0 0 0 .688.344A10.56 10.56 0 0 1 16 8.938c1.615 0 3.154.377 4.531 1.03a.5.5 0 0 0 .688-.343c.091-.39.154-.787.156-1.188a5.339 5.339 0 0 0-2.906-4.75A3.692 3.692 0 0 1 21.562 2a.5.5 0 1 0 0-1 4.684 4.684 0 0 0-4.03 2.313A5.408 5.408 0 0 0 16 3.092c-.53 0-1.047.076-1.531.22A4.684 4.684 0 0 0 10.438 1a.5.5 0 0 0-.094 0 .502.502 0 0 0-.094 0 .509.509 0 0 0-.063 0 .515.515 0 0 0-.062 0zM16 4.094c2.415 0 4.375 1.935 4.375 4.343 0 .137-.049.27-.063.407-1.343-.55-2.774-.906-4.312-.906-1.538 0-2.97.357-4.313.906-.013-.136-.062-.27-.062-.406 0-2.41 1.96-4.344 4.375-4.344zm11.094 5.312a.5.5 0 0 0-.063.031.5.5 0 0 0-.343.282 11.89 11.89 0 0 1-3.22 3.937c-1.746-2.2-4.44-3.625-7.468-3.625-3.029 0-5.722 1.425-7.469 3.625a11.943 11.943 0 0 1-3.187-3.875.51.51 0 0 0-.5-.281.51.51 0 0 0-.407.75c.855 1.65 2.083 3.054 3.532 4.188A9.405 9.405 0 0 0 6.5 19.03h-3a.5.5 0 0 0-.094 0 .502.502 0 0 0-.094 0 .509.509 0 0 0-.062 0 .515.515 0 1 0 .25 1h3a9.393 9.393 0 0 0 2.094 5.438 12.964 12.964 0 0 0-4.156 4.718.51.51 0 0 0 .906.47c.922-1.782 2.285-3.266 3.937-4.376A9.547 9.547 0 0 0 16 29.031a9.55 9.55 0 0 0 6.75-2.781 11.939 11.939 0 0 1 3.938 4.469.5.5 0 0 0 .343.281.5.5 0 0 0 .563-.719 12.942 12.942 0 0 0-4.188-4.781 9.414 9.414 0 0 0 2.094-5.469h3a.5.5 0 1 0 0-1h-3a9.405 9.405 0 0 0-1.469-4.593c1.437-1.128 2.681-2.554 3.563-4.282a.5.5 0 0 0-.5-.75zM16 11.031c4.717 0 8.531 3.795 8.531 8.5 0 4.706-3.814 8.5-8.531 8.5-4.717 0-8.531-3.794-8.531-8.5 0-4.705 3.814-8.5 8.531-8.5z" color="#000" enable-background="accumulate" font-family="Sans" font-weight="400" overflow="visible"/></svg>