<svg width="24" height="24" viewBox="0 0 24 24" fill="none" xmlns="http://www.w3.org/2000/svg">
<path d="M12.5 20.6161H12H11.5H11H10.5M10.5 20.6161H10H9.5M10.5 20.6161H9.5M9.5 20.6161H7.08342C4.0467 20.6161 2 18.2407 2 15.322V8.79412C2 5.87545 4.0467 3.5 7.08342 3.5H16.8885C18.3023 3.51525 19.6479 4.08993 20.612 5.0902C21.576 6.09048 22.0744 7.42903 21.991 8.79412V12" stroke="#B3BAC5" stroke-width="1.5" stroke-linecap="round" stroke-linejoin="round"/>
<path d="M22 9L2 9" stroke="#B3BAC5" stroke-width="1.5" stroke-linecap="round" stroke-linejoin="round"/>
<path d="M7 13.5H5" stroke="#B3BAC5" stroke-width="1.5" stroke-linecap="round" stroke-linejoin="round"/>
<path d="M20.1301 20.4994V14.2461" stroke="#B3BAC5" stroke-width="1.5" stroke-linecap="round" stroke-linejoin="round"/>
<path d="M22.0029 18.6172L20.1303 20.4984L18.2578 18.6172" stroke="#B3BAC5" stroke-width="1.5" stroke-linecap="round" stroke-linejoin="round"/>
<path d="M15.5715 13V19.2533" stroke="#B3BAC5" stroke-width="1.5" stroke-linecap="round" stroke-linejoin="round"/>
<path d="M13.6992 14.8812L15.5718 13L17.4443 14.8812" stroke="#B3BAC5" stroke-width="1.5" stroke-linecap="round" stroke-linejoin="round"/>
</svg>
