<svg width="10" height="22" viewBox="0 0 10 22" fill="none" xmlns="http://www.w3.org/2000/svg">
<path d="M3.15954 4.86101C3.15954 3.87299 3.9856 3.07031 5.00088 3.07031C6.01615 3.07031 6.84375 3.87299 6.84375 4.86101C6.84375 5.84903 6.01615 6.65171 5.00088 6.65171C3.9856 6.65171 3.15954 5.84903 3.15954 4.86101Z" fill="#091E42"/>
<path d="M3.15759 11.0016C3.15759 10.0136 3.98365 9.21094 4.99892 9.21094C6.0142 9.21094 6.8418 10.0136 6.8418 11.0016C6.8418 11.9897 6.0142 12.7923 4.99892 12.7923C3.98365 12.7923 3.15759 11.9897 3.15759 11.0016Z" fill="#091E42"/>
<path d="M3.15759 17.1384C3.15759 16.1503 3.98365 15.3477 4.99892 15.3477C6.0142 15.3477 6.8418 16.1503 6.8418 17.1384C6.8418 18.1264 6.0142 18.9291 4.99892 18.9291C3.98365 18.9291 3.15759 18.1264 3.15759 17.1384Z" fill="#091E42"/>
</svg>
